<svg width="704" height="375" viewBox="0 0 704 375" fill="none" xmlns="http://www.w3.org/2000/svg">
<mask id="path-1-inside-1_5_50" fill="white">
<path fill-rule="evenodd" clip-rule="evenodd" d="M55.8215 96.9999L216.073 374.564L376.325 96.9999H55.8215ZM28.1087 48.9999H404.038L432.147 0.314209H0L28.1087 48.9999Z"/>
</mask>
<path fill-rule="evenodd" clip-rule="evenodd" d="M55.8215 96.9999L216.073 374.564L376.325 96.9999H55.8215ZM28.1087 48.9999H404.038L432.147 0.314209H0L28.1087 48.9999Z" fill="#DDD9D2"/>
<path d="M216.073 374.564L215.207 375.064L216.073 376.564L216.939 375.064L216.073 374.564ZM55.8215 96.9999V95.9999H54.0895L54.9555 97.4999L55.8215 96.9999ZM376.325 96.9999L377.191 97.4999L378.057 95.9999H376.325V96.9999ZM28.1087 48.9999L27.2427 49.4999L27.5314 49.9999H28.1087V48.9999ZM404.038 48.9999V49.9999H404.615L404.904 49.4999L404.038 48.9999ZM432.147 0.314209L433.013 0.814209L433.879 -0.685791H432.147V0.314209ZM0 0.314209V-0.685791H-1.73205L-0.866025 0.814209L0 0.314209ZM216.939 374.064L56.6876 96.4999L54.9555 97.4999L215.207 375.064L216.939 374.064ZM375.459 96.4999L215.207 374.064L216.939 375.064L377.191 97.4999L375.459 96.4999ZM376.325 95.9999H55.8215V97.9999H376.325V95.9999ZM28.1087 49.9999H404.038V47.9999H28.1087V49.9999ZM431.281 -0.185791L403.172 48.4999L404.904 49.4999L433.013 0.814209L431.281 -0.185791ZM0 1.31421H432.147V-0.685791H0V1.31421ZM28.9747 48.4999L0.866025 -0.185791L-0.866025 0.814209L27.2427 49.4999L28.9747 48.4999Z" fill="#748459" mask="url(#path-1-inside-1_5_50)"/>
<mask id="path-3-inside-2_5_50" fill="white">
<path fill-rule="evenodd" clip-rule="evenodd" d="M647.368 277L487.442 0L327.516 277H647.368ZM675.081 325H299.803L271.369 374.25H703.515L675.081 325Z"/>
</mask>
<path fill-rule="evenodd" clip-rule="evenodd" d="M647.368 277L487.442 0L327.516 277H647.368ZM675.081 325H299.803L271.369 374.25H703.515L675.081 325Z" fill="#D0D4C5"/>
<path d="M487.442 0L488.308 -0.5L487.442 -2L486.576 -0.5L487.442 0ZM647.368 277V278H649.1L648.234 276.5L647.368 277ZM327.516 277L326.65 276.5L325.784 278H327.516V277ZM675.081 325L675.947 324.5L675.658 324H675.081V325ZM299.803 325V324H299.226L298.937 324.5L299.803 325ZM271.369 374.25L270.503 373.75L269.636 375.25H271.369V374.25ZM703.515 374.25V375.25H705.247L704.381 373.75L703.515 374.25ZM486.576 0.5L646.502 277.5L648.234 276.5L488.308 -0.5L486.576 0.5ZM328.382 277.5L488.308 0.5L486.576 -0.5L326.65 276.5L328.382 277.5ZM327.516 278H647.368V276H327.516V278ZM675.081 324H299.803V326H675.081V324ZM272.235 374.75L300.669 325.5L298.937 324.5L270.503 373.75L272.235 374.75ZM703.515 373.25H271.369V375.25H703.515V373.25ZM674.215 325.5L702.649 374.75L704.381 373.75L675.947 324.5L674.215 325.5Z" fill="#9C9483" mask="url(#path-3-inside-2_5_50)"/>
</svg>
